<?xml version="1.0" encoding="UTF-8"?>
<!DOCTYPE svg PUBLIC "-//W3C//DTD SVG 1.1//EN" "http://www.w3.org/Graphics/SVG/1.1/DTD/svg11.dtd">
<!-- Creator: CorelDRAW 2020 (64-Bit) -->
<svg xmlns="http://www.w3.org/2000/svg" xml:space="preserve" width="3.19in" height="3.19in" version="1.1" style="shape-rendering:geometricPrecision; text-rendering:geometricPrecision; image-rendering:optimizeQuality; fill-rule:evenodd; clip-rule:evenodd"
viewBox="0 0 9251 9251"
 xmlns:xlink="http://www.w3.org/1999/xlink"
 xmlns:xodm="http://www.corel.com/coreldraw/odm/2003">
 <defs>
  <style type="text/css">
   <![CDATA[
    .str1 {stroke:white;stroke-width:110.58;stroke-miterlimit:2.61313}
    .str0 {stroke:white;stroke-width:110.58;stroke-linecap:round;stroke-linejoin:round;stroke-miterlimit:2.61313}
    .fil0 {fill:none}
    .fil2 {fill:none;fill-rule:nonzero}
    .fil1 {fill:white;fill-rule:nonzero}
   ]]>
  </style>
 </defs>
 <g id="Layer_x0020_2">
  <metadata id="CorelCorpID_0Corel-Layer"/>
  <rect class="fil0" width="9251" height="9251"/>
  <path class="fil1" d="M3624.58 6343.97l-22.54 -312.94 -545.75 -1288.74 -640.07 441.47 1248.31 2317.51 22.5 -290.03 -0.56 -7.73 -363.45 -426.49c-86.54,-101.13 -74.7,-253.29 26.43,-339.84 32.48,-27.8 70.23,-45.43 109.38,-53.23l165.73 -39.98zm1080.12 -566.89l293.21 477.28 351.44 84.77 1.36 -2830.34 -1001.07 229.57 126.2 1921.48c49.94,-4.43 101.67,6.56 147.66,34.83 34.56,21.24 61.87,49.78 81.21,82.41zm643.93 2040.25c-14.81,110.77 -105.45,199.87 -221.32,208.5 -44.63,3.32 -87.33,-5.73 -124.75,-24.23l-383.37 -158.3 29.35 447.06 699.87 -22.53 0.03 -70.24c-0.5,-4.27 -0.5,-8.62 0.01,-12.94l0.17 -367.33zm-710.65 -1225.89l-140.98 -229.49 -140.98 229.49 -0.61 -0.38c-32.15,52.31 -84.17,92.42 -148.55,108l-262.87 63.41 166.8 195.74c45.3,47.67 71.08,113.56 65.82,184.3l-20.96 270.1 249.79 -103.13c56.62,-23.26 122.05,-25.11 183.13,0l249.79 103.13 -20.96 -270.1 0.38 -0.02c-4.57,-61.27 14.12,-124.27 57.21,-174.62l175.03 -205.4 -244.98 -59.1c-66.86,-10.89 -128.79,-49.7 -167.05,-111.94zm-1176.93 1852.79c-7.66,0.03 -14.97,-1.52 -21.6,-4.32l-1.28 0.61c-26.84,12.55 -58.66,1.58 -72.19,-24.49l-0.16 0.08 -121.91 -234.64 -1404.8 -354.58c-14.92,-3.73 -26.89,-13.21 -34.14,-25.49l-461.59 -687.17c-12.39,-16.52 -14.95,-39.36 -4.69,-58.83 6.23,-11.85 16.19,-20.49 27.66,-25.24l770.46 -321.68c9.52,-4.6 20.48,-6.52 31.74,-4.92 4.99,0.71 9.72,2.07 14.13,3.97l360.48 125.27 -800.41 -1540.52c-3.41,-5.67 -5.86,-12.06 -7.07,-18.98 -1.59,-9.1 -0.83,-18.06 1.79,-26.29l271.37 -1081.63c4.19,-19.27 18.59,-35.68 38.88,-41.46 14.27,-4.06 28.84,-2.11 40.99,4.34l1015.46 480.35c13.8,6.51 23.66,18.02 28.41,31.35l444.96 1050.75 -157.15 -2182.12c-0.8,-6.37 -0.49,-13 1.07,-19.63 2.1,-8.86 6.22,-16.71 11.77,-23.19l917.27 -1200.98c10.64,-16.3 29.59,-26.47 50.37,-24.92 14.15,1.05 26.65,7.35 35.75,16.84 341.89,365.89 677.87,768.79 1010.67,1146.26 8.31,9.44 12.8,20.94 13.62,32.6l0.01 0.01c0.1,1.35 0.15,2.69 0.14,4.04l0 0.07 -0.01 0.61 -0.01 0.67 0 0.09 -0.02 0.57 -0.03 0.67 0 0.11 -0.03 0.56 -0.05 0.67 0 0.13 -1.39 2886.26 910.37 -1611.74c6.15,-13.13 17.43,-23.84 32.25,-28.85l1063.99 -363.97c17.9,-6.53 38.72,-3.61 54.38,9.5 11.69,9.78 18.31,23.39 19.56,37.47l148.64 1104.96c1.85,9.82 1.06,20.28 -2.84,30.27 -1.84,4.72 -4.26,9.03 -7.15,12.91l-1935.67 2879.21c-14.44,23.59 -43.81,32.51 -68.54,22 -7.33,3.66 -15.6,5.73 -24.34,5.77l-2189.11 16.67zm1997.49 -125.36l46.56 -0.37 -46.55 -28.58 -0.01 28.94zm-3439.45 -966.12l73.12 -506.05 -575.59 240.3 502.48 265.75zm186.74 -520.46l-80.74 558.75 762.57 104.81 -270.51 -520.64 -411.32 -142.92zm5344.6 -1318.44l-701.5 -275.91 -1390.13 2535.82 -0.18 386.75 221.18 135.82 1870.64 -2782.48zm-635.11 -368.39l651.94 256.41 -120.12 -893.04 -531.82 636.63zm-3944.71 -477.96l-821.37 -388.55 227.08 798.45 594.29 -409.89zm1381.55 -1042.93l950.94 -218.06 -861.09 -976.79 -89.84 1194.85z"/>
  <path class="fil2 str0" d="M7821.36 2756.7l330.54 330.61m0.01 -330.61l-330.54 330.61"/>
  <circle class="fil2 str1" cx="6229.41" cy="4054.99" r="219.82"/>
  <polygon class="fil2 str0" points="852.63,4700.5 995.9,4948.68 1139.16,5196.87 852.63,5196.87 566.03,5196.87 709.29,4948.68 "/>
  <circle class="fil2 str1" cx="1863.94" cy="1612.7" r="245.39"/>
  <circle class="fil2 str1" cx="5814.59" cy="1454.66" r="287.64"/>
  <polygon class="fil2 str0" points="2596.08,2592.2 2711.88,2792.78 2827.66,2993.28 2596.08,2993.28 2364.57,2993.28 2480.3,2792.78 "/>
  <polygon class="fil2 str0" points="8747.98,4323.6 8885.14,4561.29 9022.38,4798.87 8747.98,4798.87 8473.56,4798.87 8610.8,4561.29 "/>
  <path class="fil2 str0" d="M3339.83 866.75l259.49 259.42m0 -259.42l-259.49 259.42"/>
 </g>
</svg>
