<svg xmlns="http://www.w3.org/2000/svg" viewBox="0 0 3121.82 3121.82" style="fill-rule:evenodd; clip-rule:evenodd">
  <path fill="#fff" d="M1560.91 0c862.09,0 1560.91,698.82 1560.91,1560.91 0,862.09 -698.82,1560.91 -1560.91,1560.91 -862.09,0 -1560.91,-698.82 -1560.91,-1560.91 0,-862.09 698.82,-1560.91 1560.91,-1560.91zm202.37 461.55l273.75 445.55 510.08 123.07c126.06,30.51 203.52,157.43 173.02,283.49 -9.01,37.25 -26.44,70.23 -49.78,97.47l-340.12 399.29 40.73 524.93c9.64,129.61 -87.59,242.55 -217.19,252.19 -43.48,3.23 -85.08,-5.57 -121.54,-23.58l-471.33 -194.62 -486.04 200.71c-119.94,49.29 -257.19,-7.97 -306.48,-127.9 -14.37,-34.99 -19.69,-71.45 -17.01,-106.75l-0.49 -0.03 40.73 -524.93 -340.19 -399.22c-84.35,-98.58 -72.8,-246.97 25.78,-331.32 31.48,-26.96 68.07,-44.07 105.99,-51.76l501.62 -121.01 275.46 -448.37c68.11,-110.79 213.19,-145.4 323.98,-77.29 33.6,20.66 60.18,48.38 79.03,80.11zm-77.15 774.23l-125.22 -203.8 -125.19 203.8 -0.59 -0.35c-31.34,50.96 -82.06,90.06 -144.81,105.26l-233.51 56.35 147.45 173.02c44.14,46.47 69.26,110.72 64.14,179.66l-18.61 239.94 221.82 -91.59c55.2,-22.68 119.03,-24.49 178.58,0l221.85 91.62 -18.61 -239.98 0.38 -0.03c-4.45,-59.72 13.77,-121.15 55.76,-170.23l155.45 -182.41 -216.15 -52.18c-65.15,-10.64 -125.47,-48.45 -162.76,-109.08z"/>
</svg>
